<svg xmlns="http://www.w3.org/2000/svg" viewBox="0 0 400 400">
<style>
.st0{fill:#1c1e2b;}
.st1{fill:#20232f;}
.st2{fill:#15171f;}
.st3{fill:#11131a;}
.st4{fill:#181a25;}
.st5{opacity:0.15;}
.st6{fill:#00A900;}
.st7{fill:#EE0000;}
.st8{fill:#0060E7;}
.st9{fill:#151514;}
.st10{fill:#009EFF;}
.st11{fill:#FA2728;}
.st12{fill:#00D500;}
.st13{fill:#3C3C3A;}
.st14{opacity:6.000000e-02;}
.st15{fill:url(#SVGID_1_);}
.st16{fill:url(#SVGID_2_);}
.st17{fill:url(#SVGID_3_);}
.st18{fill:url(#SVGID_4_);}
.st19{fill:#ffffff;fill-opacity:0.06;}
</style>
		<g>
			<path class="st0" d="M96.2,61.1c11.4-9.6,23.9-17.2,38.2-21.6c15.8-4.9,31.9-6.6,48.4-5.2c24.5,2.1,47,10.4,68.1,22.7
				c18.1,10.6,34.1,23.8,48.4,39c8,8.5,15.1,17.6,21.8,27.1c9.8,13.8,17.9,28.5,24.3,44.2c6.2,15.3,10.6,31.2,12.6,47.6
				c2.5,20.7,2.1,41.2-3.6,61.4c-5.7,20-15.9,37.3-31.2,51.5c-3.5,3.2-7.2,6.2-11.2,8.9c-8.3,5.6-17.4,9.7-26.9,12.8
				c-1.6,0.5-3.1,1-4.7,1.3c-12.1,3.3-24.4,4.3-36.8,3.7c-12.3-0.5-24.4-2.6-36.2-6.3c-6.1-1.9-12.1-4-17.9-6.7
				c-0.4-0.1-0.9-0.3-1.3-0.5c-8.5-3.9-16.8-8.2-24.7-13.2c-7.7-4.9-15.1-10.2-22.1-16c-7.2-6-14.2-12.2-20.5-19
				c-10.2-10.9-19.7-22.4-27.8-34.9c-8.7-13.4-15.9-27.6-21.4-42.6c-4.3-11.7-7.9-23.6-10.1-35.9c-1-5.7-1.7-11.3-2.1-17.1
				c-0.5-5.9-0.5-11.7-0.2-17.6c0.5-10.4,2.2-20.7,5-30.7c0.2-0.5,0.3-1.1,0.5-1.6c0.1-0.4,0.3-0.8,0.4-1.2c0.5-1.3,0.9-2.6,1.3-4
				c0.1-0.4,0.3-0.8,0.4-1.1c0.7-1.7,1.3-3.4,2-5.1c0-0.2,0.1-0.3,0.2-0.4c0.5-1.2,1.1-2.5,1.6-3.7c3.8-8.5,8.6-16.5,14.5-23.8
				c3.2-3.9,6.5-7.7,10.3-11.1C95.7,61.7,96,61.5,96.2,61.1z"/>
			<path class="st1" d="M40.6,168c0.6,1.7,0.2,3.5,0.2,5.3C40.3,171.6,40.5,169.8,40.6,168z"/>
			<path class="st2" d="M176.2,50.5c16.6-0.2,31.5,3.2,46,8.7c10,3.9,19.6,8.7,28.7,14.5c6.8,4.3,13.5,9,19.7,14.3
				c5.5,4.6,10.8,9.4,15.8,14.5c12.2,12.6,22.8,26.4,31.7,41.6c7.5,12.7,13.4,26.2,17.8,40.2c2.6,8.5,4.6,17.2,5.9,26
				c1.2,8.2,1.9,16.4,1.7,24.7c-0.3,10.7-1.7,21.2-4.7,31.5c-2.9,10.1-7,19.7-12.8,28.5c-7.8,11.8-17.7,21.4-30,28.5
				c-9.9,5.7-20.6,9.3-31.9,11.2c-7.9,1.3-15.8,1.7-23.8,1.2c-10.5-0.6-20.8-2.6-30.8-5.6c-8.5-2.6-16.7-5.8-24.7-9.8
				c-10-4.9-19.3-10.9-28.2-17.7c-7.4-5.6-14.4-11.7-20.8-18.3c-9.1-9.2-17.3-19.2-24.5-30c-6.1-9.1-11.5-18.5-16-28.5
				c-4.8-10.6-8.7-21.6-11.5-32.9c-1.7-6.7-3-13.5-3.9-20.3c-0.4-3.3-0.8-6.6-0.8-10c0-2.6-0.4-5.2-0.3-7.8
				c0.3-9.6,1.2-19.2,3.5-28.6c2-8.2,4.7-16.1,8.5-23.7c4.1-8.2,9.2-15.7,15.4-22.6c5.4-6,11.5-11.1,18.3-15.4
				c10.2-6.5,21.4-10.6,33.3-12.7C164.2,51.1,170.7,50.4,176.2,50.5z"/>
			<path class="st3" d="M310.2,337.5c-9.2,5.8-19.1,10-29.6,12.9c0,0,0,0,0,0c-3,0.5-5.9,1.4-8.9,1.9c-5.1,0.9-10.2,1.5-15.3,1.7
				c-5.1,0.2-10.2,0.2-15.3-0.2c-5.8-0.4-11.6-1.1-17.3-2.1c-7.4-1.3-14.6-3.3-21.6-5.7c-4.3-1.5-8.5-3.2-12.7-4.8c0,0,0,0,0,0
				c-0.3-0.1-0.7-0.2-1-0.4c0,0,0,0,0,0c-0.5-0.2-0.9-0.4-1.4-0.7c-13.2-6.2-25.7-13.5-37.3-22.3c-8.3-6.3-16.1-13.1-23.6-20.3
				c-2.4-2.3-4.7-4.8-7-7.2c-3.3-3.5-6.5-7.1-9.6-10.8c-6.2-7.4-11.9-15.1-17.1-23.3c-5.5-8.7-10.5-17.6-14.7-27.1
				c-3.3-7.5-6.3-15.2-8.9-23c-3.2-9.7-5.8-19.6-7.4-29.8c-0.9-5.9-1.7-11.8-1.8-17.7c-0.1-6.5-0.2-13,0.5-19.6
				c0.6-5.2,1.3-10.3,2.3-15.4c0.7-3.8,1.7-7.5,2.6-11.2c0.4-0.3,0.3-0.7,0.3-1c0,0,0,0,0,0c0.7-1.3,1.1-2.7,1.3-4.1
				c0.1-0.3,0.2-0.7,0.3-1c0,0,0,0,0,0c0.9-1.7,1.6-3.6,2-5.5c0.8-1.2,1.3-2.5,1.7-3.8c2.5-5.4,5.3-10.6,8.6-15.6
				c4.4-6.6,9.5-12.7,15.2-18.3c0.6-0.6,1.4-1,1.5-2c-1.8,0.9-3.2,2.3-4.8,3.4c-9.7,6.9-18.6,14.5-25.9,24
				c-4.4,5.8-8.4,11.8-11.5,18.4c-3.2,5.7-5.4,11.8-7.4,18c-4.5,14-6.1,28.4-5.9,43.1c0.4,1.8-0.1,3.5,0.2,5.3
				c0,3.2,0.3,6.4,0.7,9.7c0.8,7.8,2.1,15.4,4,23c7.7,30.6,21.9,57.9,41.5,82.5c6.4,8.1,13.5,15.7,21,22.8
				c19,18,40.6,32.1,64.8,42.1c13.6,5.6,27.7,9.5,42.2,11.5c8.4,1.1,16.9,1.6,25.3,1.1c9.3-0.6,18.4-1.8,27.3-4.6
				c0.2,0,0.3,0,0.5-0.1c12.7-3.7,24.2-10,34.8-17.7c3.1-2.2,6.3-4.1,9.1-6.7C311.3,336.7,310.8,337.2,310.2,337.5z"/>
			<path class="st4" d="M337.4,228.4c-0.3-5.4-0.7-10.7-1.4-16.1c-1.3-8.7-3.2-17.2-5.8-25.6c-4.4-13.9-10.1-27.2-17.5-39.8
				c-7.4-12.6-16.1-24.3-26-35.1c-7.1-7.7-14.7-14.9-22.9-21.4c-9.1-7.3-18.8-13.7-29.2-19c-5.5-2.9-11.2-5.3-17-7.5
				c-11.4-4.3-23.1-6.8-35.3-7.5c-6.7-0.4-13.5-0.1-20.2,0.9c-9.3,1.3-18.2,3.7-26.7,7.7C120.8,71.7,109,81.7,100,95
				c-6.5,9.5-11.1,19.9-14.3,31c-3.1,11-4.7,22.3-4.5,33.7c0,2.7,0.1,5.3,0.3,8c0.3,4.9,0.8,9.8,1.5,14.7c1.4,8.9,3.7,17.5,6.6,26
				c4.4,13,10,25.5,17.1,37.2c7.6,12.6,16.4,24.2,26.4,34.9c4.4,4.7,9.1,9.2,14,13.4c7.9,6.8,16.2,12.9,25.1,18.4
				c11.1,6.8,22.8,12.1,35.3,15.9c12.1,3.7,24.4,5.9,38.3,5.8c3.7,0.1,8.5-0.4,13.3-1c8.4-1.1,16.5-3.4,24.3-6.9
				c11.6-5.2,21.5-12.8,29.8-22.5c6.9-8,12.3-16.9,16.1-26.7C335.4,261.4,338.2,245.2,337.4,228.4z"/>
		</g>
		<g class="st5">
			<path d="M278.3,278.8l-6.4,5.5c-3.1,2.6-7.3,3.3-11,1.6l-26.5-11.6c-2.4-1.1-3-4.3-1-6.1l10.3-9.4c1.8-1.6,4.5-2,6.6-0.8l2.5,1.4
				"/>
			<path d="M296.6,232.5l2.6-16.3l6.7-27.8L272,149.9h-2c-2.9,0-5,2.8-4.2,5.6l16,55c1.6,5.4,0.2,11.3-3.6,15.5l-5.9,6.5
				c-0.9,1-0.9,2.5-0.1,3.5l13.4,15.7c2.9,3.4,0.7,8.8-3.8,9.1l-25.3,2.1l11.7,9.8l19.4-7.7c0,0,5.6-1.5,7-6.7
				c1.4-5.2,1-14.8,1-14.8L296.6,232.5z"/>
			<path d="M123.4,150.1l-7.8-27.2c-1.2-4.3,0.3-9,3.8-11.7l46.8-36.9c6.1-4.8,14.6-5.4,21.3-1.4l13.1,7.7l58.8,46.7l5.6,13.1v0
				c0,3.5-3.7,5.8-6.8,4.2l-68.7-35.2c-4.2-2.1-9.2-1.5-12.8,1.5l-47.8,40.9C126.9,153.3,124.1,152.4,123.4,150.1z"/>
			<path d="M124.2,160.5l-18.8,16.1c-3.7,3.2-5.2,8.2-3.9,12.9l15.6,55.3c0.8,2.8,2.7,5.2,5.3,6.6l61.1,32.7c3.9,2.1,8.6,1.6,12-1.1
				l16.2-13.1c1.9-1.5,1.6-4.5-0.5-5.7L183,249l-31.4-10.5c0,0-27.2-26.3-27.9-26.9c-0.7-0.6-0.7-28.2-0.7-28.2l5-16.4l-2-5.9
				C125.7,160.2,124.8,160,124.2,160.5z"/>
			<path d="M192.1,221.7c0,0-18.5-8.2-20.9-15.4c-2-5.9-7.7-29.1-9.7-37.2c-0.4-1.7,0.2-3.5,1.5-4.6l25.1-21.2
				c2.8-2.4,6.8-2.8,10.1-1.2l38.9,19.7c1.5,0.7,2.6,2.1,3,3.7l10,36.4c0.9,3.4,0,7-2.5,9.5l-0.9,1l-29.5-14.7l-5.8-1.9l-5.7,0.6
				c-3.5,0.2-8,4.4-5.6,7l21.5,23.6c0.9,1,0.9,2.5,0.1,3.5l-5.4,6.7l8.2,7.7c0,0,33.7-19.9,34.9-20.4c1.2-0.5,12.3-19.2,12.3-19.2
				l-2.4-16.9l-18.2-32.2l-17.8-16.7l-30.6-9.1h-13.7l-18.5,8.2l-9.7,13.2l-6.8,18l10,39.7l16.1,22l20.6,5.2L192.1,221.7z"/>
			<path d="M267.4,246l15.3,3.3l2.1,2c2.2,2.1,1,5.9-2,6.3l-21.6,3.5c-2.6,0.4-5.2-0.4-7.2-2.1l-8.5-7.7c-0.8-0.7-1.9-0.7-2.7,0
				l-9.4,9.2c-6.3,6.1-15.8,7.5-23.5,3.3l-54.6-29.4c-5.1-2.8-8.9-7.5-10.4-13.1l-14.3-53.3c-1.6-6,0.4-12.3,5.2-16.3l43.5-36.3
				c3-2.5,6.9-3.8,10.8-3.7h0l-1.9,16.5l-38,28.2l-1.1,23.2l6.5,34.3c0,0,24.1,13.7,24.8,15.2c0.7,1.5,23.3,14.1,23.3,14.1l18.4-0.5
				l14.6-6.2c0,0,8.2-5.9,14.6,0.2c6.5,6.1,11.9,9.4,12,10.2C263.6,247.4,267.4,246,267.4,246z"/>
			<path d="M279.2,206.9l0.5,2.3c0.9,4-0.2,8.1-2.9,11.2l-8.1,9c-0.8,0.9-0.9,2.4,0,3.3l16.5,19.2l-17.9-3.9l-10-15.1l-0.7-10
				l7.5-3.1l10.7-8.5"/>
		</g>
		<path class="st6" d="M281,278.8l-6.4,5.5c-3.1,2.6-7.3,3.3-11,1.6l-26.5-11.6c-2.4-1.1-3-4.3-1-6.1l10.3-9.4
			c1.8-1.6,4.5-2,6.6-0.8l2.5,1.4"/>
		<path class="st6" d="M299.3,232.5l2.6-16.3l6.7-27.8l-33.8-38.5h-2c-2.9,0-5,2.8-4.2,5.6l16,55c1.6,5.4,0.2,11.3-3.6,15.5
			l-5.9,6.5c-0.9,1-0.9,2.5-0.1,3.5l13.4,15.7c2.9,3.4,0.7,8.8-3.8,9.1l-25.3,2.1l11.7,9.8l19.4-7.7c0,0,5.6-1.5,7-6.7
			c1.4-5.2,1-14.8,1-14.8L299.3,232.5z"/>
		<path class="st7" d="M126.2,150.1l-7.8-27.2c-1.2-4.3,0.3-9,3.8-11.7l46.8-36.9c6.1-4.8,14.6-5.4,21.3-1.4l13.1,7.7l58.8,46.7
			l5.6,13.1l0,0c0,3.5-3.7,5.8-6.8,4.2L192,109.3c-4.2-2.1-9.2-1.5-12.8,1.5l-47.8,40.9C129.6,153.3,126.8,152.4,126.2,150.1z"/>
		<path class="st8" d="M126.9,160.5l-18.8,16.1c-3.7,3.2-5.2,8.2-3.9,12.9l15.6,55.3c0.8,2.8,2.7,5.2,5.3,6.6l61.1,32.7
			c3.9,2.1,8.6,1.6,12-1.1l16.2-13.1c1.9-1.5,1.6-4.5-0.5-5.7L185.7,249l-31.4-10.5c0,0-27.2-26.3-27.9-26.9s-0.7-28.2-0.7-28.2
			l5-16.4l-2-5.9C128.4,160.2,127.5,160,126.9,160.5z"/>
		<path class="st9" d="M194.9,221.7c0,0-18.5-8.2-20.9-15.4c-2-5.9-7.7-29.1-9.7-37.2c-0.4-1.7,0.2-3.5,1.5-4.6l25.1-21.2
			c2.8-2.4,6.8-2.8,10.1-1.2l38.9,19.7c1.5,0.7,2.6,2.1,3,3.7l10,36.4c0.9,3.4,0,7-2.5,9.5l-0.9,1L220,197.7l-5.8-1.9l-5.7,0.6
			c-3.5,0.2-8,4.4-5.6,7l21.5,23.6c0.9,1,0.9,2.5,0.1,3.5l-5.4,6.7l8.2,7.7c0,0,33.7-19.9,34.9-20.4s12.3-19.2,12.3-19.2l-2.4-16.9
			l-18.2-32.2l-17.8-16.7l-30.6-9.1h-13.7l-18.5,8.2l-9.7,13.2l-6.8,18l10,39.7l16.1,22l20.6,5.2L194.9,221.7z"/>
		<path class="st9" d="M270.1,245.9l15.3,3.3l2.1,2c2.2,2.1,1,5.9-2,6.3l-21.6,3.5c-2.6,0.4-5.2-0.4-7.2-2.1l-8.5-7.7
			c-0.8-0.7-1.9-0.7-2.7,0l-9.4,9.2c-6.3,6.1-15.8,7.5-23.5,3.3L158,234.3c-5.1-2.8-8.9-7.5-10.4-13.1l-14.3-53.3
			c-1.6-6,0.4-12.3,5.2-16.3l43.5-36.3c3-2.5,6.9-3.8,10.8-3.7h0l-1.9,16.5l-38,28.2l-1.1,23.2l6.5,34.3c0,0,24.1,13.7,24.8,15.2
			c0.7,1.5,23.3,14.1,23.3,14.1l18.4-0.5l14.6-6.2c0,0,8.2-5.9,14.6,0.2c6.5,6.1,11.9,9.4,12,10.2
			C266.3,247.4,270.1,245.9,270.1,245.9z"/>
		<path class="st9" d="M282,206.8l0.5,2.3c0.9,4-0.2,8.1-2.9,11.2l-8.1,9c-0.8,0.9-0.9,2.4,0,3.3l16.5,19.2l-17.9-3.9l-10-15.1
			l-0.7-10l7.5-3.1l10.7-8.5"/>
		<path class="st10" d="M129.2,161.7l16.6,58c1.5,5.2,4.9,9.6,9.7,12.2l58.1,32.6c0.8,0.4,0.9,1.5,0.3,2.1l-13.1,11.3
			c-0.1,0.1-0.2,0.2-0.4,0.3c-2.4,2.4-6.1,3-9.2,1.4l-59-31c-4.1-2.1-7.1-5.9-8.2-10.4l-13.8-53.1c-0.9-3.3,0.1-6.8,2.6-9.2
			l15.1-14.7C128.2,160.9,129,161.1,129.2,161.7z"/>
		<path class="st11" d="M131.3,145.7l-6.1-26.9c-0.6-2.7,0.4-5.6,2.5-7.3l44.8-36.9c4.2-3.4,10-4.1,14.8-1.8l61.2,29.8
			c5.9,2.9,10.3,8.1,12.1,14.3l6.9,23.4c0.1,0.5-0.4,0.9-0.8,0.7l-71.5-36.7c-4.7-2.4-10.4-1.7-14.3,1.7l-46.6,40.7
			C133.3,147.7,131.6,147.1,131.3,145.7z"/>
		<path class="st12" d="M274.2,150l24.2,11.9c4.7,2.3,8.2,6.5,9.6,11.5l13.3,46.7c1.7,6,0.3,12.5-3.9,17.3L281,278.8
			c-4.1,4.6-10.8,5.8-16.2,3l-22.4-11.9c-1.4-0.7-1.6-2.6-0.5-3.6l9.4-9l9.9,5.3c2.1,1.1,4.5,1.6,6.9,1.3l21.5-2.7
			c7.7-1,8.9-10,3.2-15.3l-11.2-12.5c-0.8-0.9-0.8-2.2,0-3.1l7.6-8.9c2.3-2.7,3.1-6.4,2.1-9.8l-17.9-60.9
			C273.2,150.2,273.7,149.8,274.2,150z"/>
		<path class="st13" d="M287.4,251.4l-20.7-22.2l10.9-9.3c4-3.4,5.6-8.8,4.2-13.8l-13.9-49.5c-1.9-6.7-6.4-12.3-12.4-15.6
			l-52.1-26.8c-7-3.8-14.8-3.7-20.7,1.6l-39.7,35.5c-3.1,2.8-4.4,7-3.3,11l14.9,56c1.3,5,4.7,9.3,9.3,11.7l53.8,28.6
			c5.3,2.8,11.8,2.1,16.4-1.8l16.7-14.2l12,12.6c1.3,1.3,3.1,2,5,1.7l18.6-2.6C287.7,254.2,288.3,252.5,287.4,251.4z M225.6,231.1
			c-3.4,2.2-7.7,2.4-11.3,0.6l-34.5-17.6c-4-2-6.8-5.6-7.9-9.9l-8.8-34.7c-0.7-2.7,0.1-5.5,2.2-7.4l23.7-22.2
			c4.4-4.1,10.9-5.2,16.4-2.6L241,154c6.1,2.8,10.6,8.2,12.2,14.7l7.2,27.6c1.6,6.3-0.9,12.9-6.4,16.4l-1.7,1.1l-18.6-20
			c-0.2-0.2-0.5-0.4-0.9-0.3l-23.7,3.2c-0.8,0.1-1.2,1.1-0.6,1.7l25.8,27L225.6,231.1z"/>
		<g class="st14">
			<g>
				<linearGradient id="SVGID_1_" gradientUnits="userSpaceOnUse" x1="109.6019" y1="220.8677" x2="214.4196" y2="220.8677">
					<stop  offset="0" style="stop-color:#FFFFFF"/>
					<stop  offset="1" style="stop-color:#231F20"/>
				</linearGradient>
				<path class="st15" d="M194.9,280.8c-1.3,0-2.5-0.3-3.7-0.9l-59-31c-4.1-2.2-7.2-6-8.4-10.5l-13.8-53.1c-0.9-3.4,0.1-7,2.6-9.4
					l15.1-14.7c0.3-0.3,0.7-0.4,1-0.3c0.4,0.1,0.7,0.4,0.8,0.7l16.6,58c1.5,5.2,4.9,9.4,9.5,12.1l58.1,32.6c0.4,0.2,0.7,0.7,0.8,1.1
					s-0.1,1-0.4,1.3l-13.1,11.3c-0.1,0.1-0.2,0.2-0.3,0.3C199,280,197,280.8,194.9,280.8z M128.3,161.4c-0.2,0-0.3,0.1-0.4,0.2
					l-15.1,14.7c-2.4,2.3-3.3,5.7-2.5,8.9l13.8,53.1c1.1,4.4,4.1,8.1,8.1,10.2l59,31c3,1.6,6.5,1,8.9-1.4c0.1-0.1,0.2-0.2,0.4-0.4
					l13.1-11.3c0.2-0.2,0.3-0.6,0.3-0.9c-0.1-0.3-0.3-0.6-0.6-0.8l-58.1-32.6c-4.8-2.7-8.3-7.1-9.8-12.3l-16.6-58
					c-0.1-0.2-0.2-0.4-0.4-0.4C128.4,161.4,128.4,161.4,128.3,161.4z"/>
			</g>
			<g>
				
					<linearGradient id="SVGID_2_" gradientUnits="userSpaceOnUse" x1="124.7775" y1="109.3474" x2="267.8642" y2="109.3474">
					<stop  offset="0" style="stop-color:#FFFFFF"/>
					<stop  offset="1" style="stop-color:#231F20"/>
				</linearGradient>
				<path style="fill:url(#SVGID_2_);" d="M133.1,147.5c-0.2,0-0.4,0-0.7-0.1
					c-0.7-0.2-1.3-0.8-1.4-1.6l-6.1-26.9c-0.6-2.8,0.4-5.7,2.6-7.6l44.8-36.9c4.2-3.5,10.2-4.2,15.1-1.8l61.2,29.8
					c5.9,2.9,10.4,8.2,12.2,14.5l6.9,23.4c0.1,0.3,0,0.6-0.3,0.8c-0.3,0.2-0.6,0.2-0.9,0.1l-71.5-36.7c-4.6-2.4-10.1-1.7-14,1.7
					l-46.6,40.7C134.1,147.3,133.6,147.5,133.1,147.5z M181.3,71.7c-3.1,0-6.2,1.1-8.6,3.1l-44.8,36.9c-2.1,1.7-3,4.4-2.4,7.1
					l6.1,26.9c0.1,0.6,0.5,1,1.1,1.2c0.6,0.2,1.2,0.1,1.6-0.3l46.6-40.7c4.1-3.5,9.8-4.2,14.6-1.8l71.5,36.7c0.1,0.1,0.3,0,0.4,0
					c0.1-0.1,0.1-0.2,0.1-0.4l-6.9-23.4c-1.8-6.2-6.2-11.4-12-14.2l-61.2-29.8C185.4,72.2,183.4,71.7,181.3,71.7z"/>
			</g>
			<g>
				
					<linearGradient id="SVGID_3_" gradientUnits="userSpaceOnUse" x1="240.957" y1="216.6241" x2="322.3086" y2="216.6241">
					<stop  offset="0" style="stop-color:#FFFFFF"/>
					<stop  offset="1" style="stop-color:#231F20"/>
				</linearGradient>
				<path style="fill:url(#SVGID_3_);" d="M271.1,283.6c-2.2,0-4.3-0.5-6.4-1.6
					L242.3,270c-0.7-0.4-1.2-1.1-1.3-1.9c-0.1-0.8,0.2-1.6,0.8-2.1l9.5-9.1l10,5.4c2.1,1.1,4.4,1.6,6.8,1.3l21.5-2.7
					c3-0.4,5.3-2.1,6.1-4.8c1.1-3.3-0.1-7.3-3.1-10l-11.2-12.5c-0.9-1-0.9-2.4,0-3.4l7.6-8.9c2.2-2.6,3-6.2,2-9.5l-17.9-60.9
					c-0.1-0.3,0-0.6,0.3-0.9c0.3-0.2,0.6-0.3,0.9-0.1l24.2,11.9c4.7,2.3,8.3,6.6,9.8,11.7l13.3,46.7c1.8,6.1,0.3,12.7-3.9,17.5
					L281.2,279C278.6,282,274.9,283.6,271.1,283.6z M251.3,257.5l-9.3,8.8c-0.5,0.5-0.7,1.1-0.6,1.7c0.1,0.7,0.5,1.2,1.1,1.5
					l22.4,11.9c5.4,2.9,11.9,1.7,15.9-2.9l36.4-41.4c4.1-4.7,5.6-11.1,3.8-17l-13.3-46.7c-1.4-5-4.9-9.1-9.5-11.4l-24.2-11.9
					c-0.1-0.1-0.3,0-0.4,0c-0.1,0.1-0.1,0.2-0.1,0.4l17.9,60.9c1,3.5,0.2,7.2-2.1,10l-7.6,8.9c-0.7,0.8-0.7,2,0,2.8l11.2,12.5
					c3.1,2.9,4.3,7,3.2,10.5c-0.9,2.9-3.3,4.7-6.5,5.1l-21.5,2.7c-2.5,0.3-4.9-0.1-7.1-1.3L251.3,257.5z"/>
			</g>
			<g>
				
					<linearGradient id="SVGID_4_" gradientUnits="userSpaceOnUse" x1="139.0339" y1="185.9953" x2="288.072" y2="185.9953">
					<stop  offset="0" style="stop-color:#FFFFFF"/>
					<stop  offset="1" style="stop-color:#231F20"/>
				</linearGradient>
				<path style="fill:url(#SVGID_4_);" d="M224.6,260.6c-2.4,0-4.8-0.6-7-1.8
					l-53.8-28.6c-4.6-2.5-8.1-6.8-9.4-11.8l-14.9-56c-1.1-4.1,0.2-8.4,3.4-11.3l39.7-35.5c5.7-5.1,13.4-5.7,21-1.6l52.1,26.8
					c6.1,3.3,10.7,9.1,12.6,15.7l13.9,49.5c1.4,5.1-0.3,10.6-4.3,14l-10.7,9.1l20.5,22c0.5,0.6,0.7,1.3,0.4,2
					c-0.3,0.7-0.9,1.2-1.6,1.3l-18.6,2.6c-1.9,0.3-3.8-0.4-5.2-1.8L250.8,243l-16.5,14C231.5,259.4,228,260.6,224.6,260.6z
					 M193.6,111.8c-4,0-7.7,1.4-10.8,4.2l-39.7,35.5c-3,2.7-4.3,6.9-3.2,10.8l14.9,56c1.3,4.9,4.7,9.2,9.2,11.6l53.8,28.6
					c5.3,2.8,11.6,2.1,16.1-1.8l16.9-14.3l12.2,12.7c1.2,1.3,3,1.9,4.7,1.6l18.6-2.6c0.6-0.1,1-0.5,1.2-1s0.1-1.1-0.3-1.5
					l-20.9-22.4l11.1-9.4c3.9-3.3,5.5-8.6,4.1-13.6l-13.9-49.5c-1.8-6.6-6.3-12.2-12.3-15.5l-52.1-26.8
					C200,112.7,196.7,111.8,193.6,111.8z M219.5,233.1c-1.8,0-3.6-0.4-5.2-1.3l-34.5-17.6c-4-2-6.9-5.7-8.1-10.1l-8.8-34.7
					c-0.7-2.8,0.2-5.7,2.2-7.7l23.7-22.2c4.5-4.2,11-5.3,16.6-2.6l35.6,16.7c6.1,2.9,10.7,8.3,12.4,14.9l7.2,27.6
					c1.7,6.4-0.9,13.1-6.5,16.6l-1.9,1.2l-0.1-0.1l-18.6-20c-0.2-0.2-0.4-0.3-0.7-0.2l-23.7,3.2c-0.3,0-0.5,0.2-0.6,0.5
					c-0.1,0.3,0,0.6,0.2,0.8l26,27.2l-8.9,5.8l-0.1-0.2l0.1,0.2C223.9,232.5,221.7,233.1,219.5,233.1z M199.1,136.2
					c-3.6,0-7.2,1.4-9.9,3.9l-23.7,22.2c-2,1.8-2.8,4.6-2.1,7.2l8.8,34.7c1.1,4.2,3.9,7.8,7.8,9.8l34.5,17.6c3.5,1.8,7.7,1.6,11-0.6
					l8.5-5.5l-25.6-26.8c-0.3-0.3-0.4-0.8-0.3-1.3c0.2-0.4,0.5-0.8,1-0.8l23.7-3.2c0.4-0.1,0.8,0.1,1.1,0.4l18.5,19.8l1.6-1
					c5.4-3.5,7.9-9.9,6.3-16.1l-7.2-27.6c-1.7-6.4-6.1-11.7-12.1-14.6l-35.6-16.7C203.3,136.6,201.2,136.2,199.1,136.2z"/>
			</g>
		</g>
		<g>
			<path class="st19" d="M84.2,74.8l-13,6.9c-0.9,1-1.9,2-2.8,3.1l13.8-7.3C82.9,76.6,83.6,75.7,84.2,74.8z"/>
			<path class="st19" d="M79.5,81.4c0.1-0.1,0.1-0.2,0.2-0.3l-14.5,7.7c-0.7,0.9-1.3,1.8-2,2.7l14.9-7.9
				C78.6,82.8,79,82.1,79.5,81.4z"/>
			<path class="st19" d="M76.1,87l-15.5,8.2C60,96,59.5,96.8,59,97.6l15.8-8.4C75.2,88.5,75.7,87.7,76.1,87z"/>
			<path class="st19" d="M73.1,92.4L57,101c-0.4,0.8-0.9,1.5-1.3,2.3L72,94.6C72.4,93.9,72.8,93.2,73.1,92.4z"/>
			<path class="st19" d="M70.7,97.7l-16.6,8.8c-0.1,0.2-0.2,0.3-0.2,0.5c-0.3,0.6-0.6,1.2-0.9,1.8l16.9-8.9
				C70.2,99.1,70.4,98.4,70.7,97.7z"/>
			<path class="st19" d="M68.7,102.7l-17.2,9.1c-0.3,0.7-0.6,1.4-0.9,2.1l17.4-9.2C68.2,104,68.4,103.3,68.7,102.7z"/>
			<path class="st19" d="M66.7,107.6l-17.5,9.2c-0.3,0.7-0.5,1.3-0.8,2l17.7-9.4C66.5,108.8,66.6,108.2,66.7,107.6z"/>
			<path class="st19" d="M65.1,112.4C65.1,112.4,65.2,112.4,65.1,112.4l-17.6,9.3c-0.2,0.6-0.4,1.3-0.7,2l17.8-9.4
				C64.8,113.6,65,113,65.1,112.4z"/>
			<path class="st19" d="M64.1,116.9L46,126.5c-0.3,1.1-0.6,2.1-0.9,3.2l18.3-9.7C63.6,118.9,63.8,117.9,64.1,116.9z"/>
			<path class="st19" d="M62.6,123.6c0-0.1,0-0.2,0.1-0.3l-18.9,11.5c-0.2,1.1-0.5,2.1-0.7,3.2L62,126.5
				C62.2,125.5,62.4,124.6,62.6,123.6z"/>
			<path class="st19" d="M61.1,132.5L42,144c-0.1,1-0.3,2-0.4,3l19-11.6C60.8,134.5,60.9,133.5,61.1,132.5z"/>
			<path class="st19" d="M60,141.3l-19,11.6c-0.1,1-0.1,1.9-0.2,2.9l19-11.6C59.9,143.2,59.9,142.2,60,141.3z"/>
			<path class="st19" d="M59.6,149.6l-19,11.6c0,0.9,0,1.9,0,2.8l19.1-11.6C59.6,151.5,59.6,150.6,59.6,149.6z"/>
			<path class="st19" d="M59.7,158.6c0-0.3,0-0.6,0-0.8l-19,11.6c0,0.9,0,1.9,0,2.8l19.1-11.6C59.7,159.9,59.7,159.2,59.7,158.6z"/>
			<path class="st19" d="M60.1,165.6L41,177.3c0.1,0.9,0.1,1.8,0.2,2.6l19.2-11.7C60.3,167.4,60.2,166.5,60.1,165.6z"/>
			<path class="st19" d="M61,173.2L41.7,185c0.1,0.9,0.2,1.7,0.3,2.6l19.4-11.8C61.3,174.9,61.2,174.1,61,173.2z"/>
			<path class="st19" d="M62.3,180.6l-19.5,11.9c0.1,0.8,0.3,1.7,0.4,2.5l19.6-11.9C62.6,182.3,62.4,181.5,62.3,180.6z"/>
			<path class="st19" d="M63.8,187.9l-19.7,12c0.2,0.8,0.4,1.6,0.5,2.4l19.7-12C64.1,189.5,63.9,188.7,63.8,187.9z"/>
			<path class="st19" d="M65.5,194.9L45.8,207c0.2,0.8,0.4,1.6,0.6,2.4l19.8-12.1C66,196.5,65.7,195.7,65.5,194.9z"/>
			<path class="st19" d="M67.5,201.9L47.7,214c0.2,0.8,0.5,1.6,0.7,2.3l19.9-12.1C68,203.4,67.8,202.6,67.5,201.9z"/>
			<path class="st19" d="M69.8,208.6l-19.9,12.2c0.3,0.8,0.5,1.5,0.8,2.3l20-12.2C70.3,210.2,70,209.4,69.8,208.6z"/>
			<path class="st19" d="M71.6,213.9l-20,12.2c0.3,0.8,0.6,1.5,0.8,2.3l20-12.2C72.2,215.4,71.9,214.6,71.6,213.9z"/>
			<path class="st19" d="M74.1,220.4l-20,12.2c0.3,0.7,0.6,1.5,0.9,2.2l20-12.2C74.7,221.9,74.4,221.1,74.1,220.4z"/>
			<path class="st19" d="M76.8,226.8l-20,12.2c0.3,0.7,0.6,1.5,1,2.2l20-12.2C77.4,228.3,77.1,227.5,76.8,226.8z"/>
			<path class="st19" d="M79.6,233.1l-19.9,12.1c0.3,0.7,0.7,1.4,1,2.1l19.9-12.1C80.3,234.5,80,233.8,79.6,233.1z"/>
			<path class="st19" d="M82.7,239.3l-19.9,12.1c0.4,0.7,0.7,1.4,1.1,2.1l19.9-12.1C83.4,240.7,83.1,240,82.7,239.3z"/>
			<path class="st19" d="M85.9,245.2L66,257.3c0.4,0.7,0.8,1.4,1.2,2.1l19.9-12.1C86.7,246.5,86.3,245.9,85.9,245.2z"/>
			<path class="st19" d="M90.1,252.3l-19.9,12.1c0.4,0.7,0.8,1.3,1.2,2l19.9-12.1C90.9,253.7,90.5,253,90.1,252.3z"/>
			<path class="st19" d="M95.2,260.4l-19.9,12.1c0.4,0.7,0.9,1.3,1.3,2l19.9-12.1C96.1,261.7,95.7,261.1,95.2,260.4z"/>
			<path class="st19" d="M100,267.3l-19.9,12.1c0.5,0.6,0.9,1.3,1.4,1.9l19.9-12.1C100.9,268.6,100.4,267.9,100,267.3z"/>
			<path class="st19" d="M104.6,273.5l-19.9,12.1c0.5,0.6,1,1.3,1.5,1.9l19.9-12.1C105.6,274.7,105.1,274.1,104.6,273.5z"/>
			<path class="st19" d="M109.6,279.6l-19.9,12.2c0.5,0.6,1,1.2,1.5,1.8l19.9-12.2C110.7,280.8,110.1,280.2,109.6,279.6z"/>
			<path class="st19" d="M114.4,285.1l-20,12.2c0.5,0.6,1.1,1.2,1.6,1.8l19.9-12.2C115.4,286.3,114.9,285.7,114.4,285.1z"/>
			<path class="st19" d="M119.7,290.9l-19.9,12.2c0.6,0.6,1.1,1.2,1.7,1.7l19.9-12.1C120.9,292.1,120.3,291.5,119.7,290.9z"/>
			<path class="st19" d="M126.2,297.6l-19.8,12.1c0.6,0.5,1.1,1.1,1.7,1.6c0,0,0.1,0.1,0.1,0.1l19.8-12.1
				C127.3,298.7,126.7,298.1,126.2,297.6z"/>
			<path class="st19" d="M131.5,302.6l-19.8,12.1c0.6,0.6,1.2,1.1,1.9,1.6l19.8-12C132.7,303.7,132.1,303.2,131.5,302.6z"/>
			<path class="st19" d="M137.4,307.8l-19.7,12c0.6,0.5,1.3,1.1,1.9,1.6l19.7-12C138.7,308.9,138,308.4,137.4,307.8z"/>
			<path class="st19" d="M144.1,313.4l-19.6,11.9c0.7,0.5,1.3,1,2,1.5l19.5-11.9C145.4,314.5,144.8,314,144.1,313.4z"/>
			<path class="st19" d="M150.2,318.2L130.8,330c0.7,0.5,1.4,1,2.1,1.5l19.4-11.8C151.6,319.2,150.9,318.7,150.2,318.2z"/>
			<path class="st19" d="M157,323.1l-19.2,11.7c0.7,0.5,1.5,1,2.2,1.4l19.2-11.7C158.4,324.1,157.7,323.6,157,323.1z"/>
			<path class="st19" d="M162.9,327l-19.1,11.6c0.8,0.5,1.5,0.9,2.3,1.4l19.1-11.6C164.4,327.9,163.7,327.5,162.9,327z"/>
			<path class="st19" d="M171.5,332.1l-18.9,11.5c0.8,0.4,1.6,0.9,2.4,1.3l18.9-11.5C173,333,172.3,332.6,171.5,332.1z"/>
			<path class="st19" d="M180,336.7l-18.7,11.4c0.8,0.4,1.7,0.8,2.5,1.2l18.7-11.4C181.7,337.6,180.9,337.2,180,336.7z"/>
			<path class="st19" d="M189.4,341.2C189.4,341.2,189.4,341.2,189.4,341.2c-0.3-0.1-0.7-0.2-1-0.4c0,0,0,0,0,0
				c-0.4-0.2-0.9-0.4-1.3-0.6l-18.6,11.3c0.9,0.4,1.8,0.8,2.7,1.1l18.5-11.3C189.6,341.3,189.5,341.3,189.4,341.2z"/>
			<path class="st19" d="M194.8,343.3l-18.6,11.4c0.9,0.4,1.9,0.7,2.8,1.1l18.6-11.3C196.6,344,195.7,343.7,194.8,343.3z"/>
			<path class="st19" d="M202.4,346.2l-18.5,11.3c1,0.3,2,0.7,3,1l18.5-11.3C204.4,346.8,203.4,346.5,202.4,346.2z"/>
			<path class="st19" d="M210.5,348.7L191.9,360c1,0.3,2.1,0.6,3.1,0.9l18.5-11.3C212.5,349.3,211.5,349,210.5,348.7z"/>
			<path class="st19" d="M219.2,350.9l-18.6,11.3c1.1,0.3,2.2,0.5,3.3,0.7l18.7-11.4C221.5,351.4,220.4,351.2,219.2,350.9z"/>
			<path class="st19" d="M229.7,352.7l-18.9,11.5c1.2,0.2,2.4,0.4,3.6,0.6l19-11.6C232.2,353.1,231,352.9,229.7,352.7z"/>
			<path class="st19" d="M241,353.9c-0.3,0-0.6,0-0.9-0.1L221,365.5c1.3,0.1,2.7,0.2,4,0.3l19.3-11.8
				C243.2,354.1,242.1,354,241,353.9z"/>
			<path class="st19" d="M256.4,354.1c-1.5,0.1-3,0.1-4.5,0.1l-19.5,11.9c1.5,0,3.1,0,4.6,0l19.7-12
				C256.5,354.1,256.4,354.1,256.4,354.1z"/>
			<path class="st19" d="M265.5,353.3l-20,12.2c1.9-0.2,3.7-0.4,5.6-0.6l20.5-12.5C269.6,352.7,267.6,353.1,265.5,353.3z"/>
			<path class="st19" d="M280.6,350.4C280.6,350.4,280.6,350.4,280.6,350.4c-0.7,0.1-1.5,0.3-2.2,0.4L256.9,364
				c2.4-0.5,4.8-1,7.2-1.6l22.6-13.8C284.7,349.2,282.7,349.9,280.6,350.4z"/>
			<path class="st19" d="M89,69.1l-10.4,5.5c-1.4,1.2-2.7,2.5-4,3.8l11.9-6.3C87.3,71.1,88.1,70.1,89,69.1z"/>
		</g>
</svg>
